<svg width="104" height="80" viewBox="0 0 104 80" fill="none" xmlns="http://www.w3.org/2000/svg">
<path d="M63.4659 32.9566L63.4652 32.9578L63.4614 32.9647L63.3188 33.2233H63.3185C60.6311 38.1431 59.2778 43.62 59.2778 49.6853C59.2778 58.5482 61.1593 65.5673 64.7895 70.8657C68.273 75.8542 74.1255 78.4995 82.7628 78.4995C88.1549 78.4995 92.1943 76.843 95.0824 73.6669L95.0846 73.6644L63.4659 32.9566ZM63.4659 32.9566C66.3139 27.7552 69.7674 23.1398 73.8259 19.1043M63.4659 32.9566L73.8259 19.1043M81.8518 22.3095L81.853 22.3084L81.8518 22.3095ZM81.8518 22.3095C78.7376 25.462 76.3415 28.7499 74.6957 32.1786L74.6933 32.1836L74.6933 32.1835M81.8518 22.3095L74.6933 32.1835M74.6933 32.1835L74.6897 32.1912M74.6933 32.1835L74.6897 32.1912M74.6897 32.1912L74.6866 32.1979L74.6863 32.1985M74.6897 32.1912L74.6863 32.1985M74.6863 32.1985C73.1399 35.5457 72.0712 39.8541 71.436 45.0677L71.2994 46.1885L71.2311 46.749M74.6863 32.1985L71.2311 46.749M71.2311 46.749H71.7957M71.2311 46.749H71.7957M71.7957 46.749H72.9249H80.4204C86.6483 46.749 91.313 48.2225 94.6036 50.9824L94.6045 50.9832M71.7957 46.749L94.6045 50.9832M94.6045 50.9832L94.616 50.9928L94.6159 50.9929M94.6045 50.9832L94.6159 50.9929M94.6159 50.9929L94.6253 51.0004M94.6159 50.9929L94.6253 51.0004M94.6253 51.0004L94.637 51.0097L94.6384 51.0107M94.6253 51.0004L94.6384 51.0107M94.6384 51.0107C97.9467 53.6214 99.689 57.5258 99.689 62.994M94.6384 51.0107L99.689 62.994M73.8259 19.1043C78.0186 14.9404 82.4576 11.4149 87.1425 8.5216M73.8259 19.1043L87.1425 8.5216M87.1425 8.5216C91.3247 5.93881 94.905 3.77345 97.8854 2.02417M87.1425 8.5216L97.8854 2.02417M97.8854 2.02417L101.877 8.32398C97.6117 10.6733 94.0919 12.7514 91.3264 14.5568C88.1915 16.5037 85.0352 19.0942 81.8544 22.3069L97.8854 2.02417ZM99.689 62.994C99.689 66.6893 98.2156 70.2353 95.0867 73.662L99.689 62.994ZM24.0753 22.3082L24.0752 22.3084L24.0728 22.3108C21.0589 25.3688 18.7173 28.6074 17.0741 32.0307C15.4185 35.4799 14.2948 39.843 13.6582 45.0677L13.5216 46.1885L13.4533 46.749H14.0179H15.1471H22.6426C28.8705 46.749 33.5352 48.2225 36.8259 50.9824L36.8365 50.9913L36.8419 50.996L36.8475 51.0004L36.8592 51.0097L36.8606 51.0107C40.1689 53.6214 41.9114 57.5259 41.9114 62.994C41.9114 66.6902 40.4372 70.2369 37.3068 73.6644L37.3067 73.6644L37.3047 73.6668C37.3036 73.6681 37.3025 73.6693 37.3014 73.6704C34.4134 76.8443 30.3751 78.4995 24.985 78.4995C16.3476 78.4995 10.495 75.8541 7.01157 70.8654C3.3815 65.5671 1.5 58.548 1.5 49.6853C1.5 43.62 2.85333 38.1431 5.54076 33.2233H5.54116L5.68368 32.9645L5.68748 32.9576L5.68805 32.9566C8.53609 27.7552 11.9897 23.1398 16.0482 19.1043C20.2408 14.9404 24.6799 11.4149 29.3647 8.5216C33.5469 5.9388 37.1273 3.77344 40.1077 2.02416L44.0992 8.32398C39.8339 10.6733 36.3142 12.7514 33.5486 14.5568C30.4134 16.5039 27.2566 19.0948 24.0753 22.3082Z" stroke="#DADEDF"/>
</svg>
